<?xml version="1.0" standalone="no"?><!DOCTYPE svg PUBLIC "-//W3C//DTD SVG 1.1//EN" "http://www.w3.org/Graphics/SVG/1.1/DTD/svg11.dtd"><svg t="1542791034043" class="icon" style="" viewBox="0 0 1024 1024" version="1.1" xmlns="http://www.w3.org/2000/svg" p-id="2919" xmlns:xlink="http://www.w3.org/1999/xlink" width="200" height="200"><defs><style type="text/css"></style></defs><path d="M889.6 403.2 620.8 134.4 563.2 192 537.6 166.4 179.2 531.2l25.6 25.6L166.4 582.4c-51.2 51.2-51.2 128 0 179.2l89.6 89.6c51.2 51.2 128 51.2 179.2 0l32-32 25.6 25.6 364.8-364.8L832 460.8 889.6 403.2zM620.8 179.2l224 224-38.4 38.4L582.4 211.2 620.8 179.2zM428.8 819.2c-44.8 44.8-115.2 44.8-160 0l-70.4-70.4c-44.8-44.8-44.8-115.2 0-160L224 576 448 800 428.8 819.2z" p-id="2920" fill="#070707"></path></svg>